<svg xmlns="http://www.w3.org/2000/svg" xmlns:xlink="http://www.w3.org/1999/xlink" width="131.27" height="132.251" viewBox="0 0 131.27 132.251">
  <defs>
    <clipPath id="clip-path">
      <rect id="Rectángulo_182" data-name="Rectángulo 182" width="131.27" height="132.251" fill="#114653"/>
    </clipPath>
  </defs>
  <g id="Grupo_376" data-name="Grupo 376" transform="translate(-131 -7192.248)">
    <g id="Grupo_363" data-name="Grupo 363" transform="translate(131 7192.248)">
      <g id="Grupo_362" data-name="Grupo 362" transform="translate(0 0)" clip-path="url(#clip-path)">
        <path id="Trazado_104" data-name="Trazado 104" d="M28.028,118.973c.3-.664.537-1.282.236-1.677.871-1.645,1.755-3.171,1.4-4.775a5.181,5.181,0,0,0,.883-4.857c.586-.472.289-1.482-.069-2.5a5.235,5.235,0,0,0-.554-2.434,8.764,8.764,0,0,0-1.083-2.2,7.393,7.393,0,0,0-1.669-1.767,8.752,8.752,0,0,0-5.182-1.706C18.234,96.9,14.02,98.24,10.137,98.2c-1.018-.008-2.223-.244-2.642-1.172-.44-1,.3-2.1,1.034-2.911,1.136-1.27,2.357-2.479,3.525-3.729a27.252,27.252,0,0,0,3.171-4,10.978,10.978,0,0,0,1.848-4.8c.509-1.905.509-3.639-.607-4.938-.354-1.779-1.877-2.939-3.753-3.843a19.777,19.777,0,0,0-5.357-2.215C5.5,69.874,3.57,69.3,1.848,68.445.953,67.953-.02,67.187,0,66.178c.073-.965,1.115-1.722,1.791-2.04A24.138,24.138,0,0,1,7.336,61.96c2.109-.936,3.924-1.693,5.378-2.28a14.974,14.974,0,0,0,3.729-3.916,23.7,23.7,0,0,0,.55-4.962c-.574-1.286-1.323-3.46-1.913-4.791-1.132-1.347-2.288-3.1-3.236-3.965a36.609,36.609,0,0,0-3.607-3.672,16.283,16.283,0,0,1-.961-1.49,1.808,1.808,0,0,1,1.474-2.219,7.859,7.859,0,0,1,3.452-.326,27.17,27.17,0,0,0,5.821.892,16.8,16.8,0,0,0,5.671-.175,8.6,8.6,0,0,0,4.588-2.6A8.619,8.619,0,0,0,30.194,28.3a18.808,18.808,0,0,0,.012-4.71c-.354-1.6-1.091-3.411-1.083-4.551a18.062,18.062,0,0,1-1.046-2.589,3.152,3.152,0,0,1-.142-1.946c-.875-1.6-.765-3.5.969-3.367,0-.843,1.229-.22,2.5.619.37.22,1.038.7,1.8,1.246s1.6,1.16,2.373,1.738a35.676,35.676,0,0,0,4.311,2.736,13.608,13.608,0,0,0,4.942,1.437,8.32,8.32,0,0,0,4.873-.993,10.394,10.394,0,0,0,3.595-4.262c.733-1.991,1.067-4.327,1.673-5.834a23.745,23.745,0,0,1,.493-3.253,8.2,8.2,0,0,1,1.124-2.719A1.033,1.033,0,0,1,57.5.469c.44-.843,1.824-.489,2.907.562A12.155,12.155,0,0,1,61.6,3.058c.48.7,1.038,1.693,1.563,2.589a20.667,20.667,0,0,0,1.046,2.544c.415.859.867,1.706,1.266,2.43a9.275,9.275,0,0,0,15.066,1.791L87.822,4.3a1.972,1.972,0,0,1,3.44,1.295L91.388,16.5a9.205,9.205,0,0,0,1.934,5.577,9.359,9.359,0,0,0,4.673,3.2,7.953,7.953,0,0,0,5.9-.2c.252.22,2.9-.5,5.113-1.9,2.671-.415,5.1-1.461,5.109-1.9.814.138,1.6.472,2.162.537.395,1.018.489,2.17.281,2.206a18.878,18.878,0,0,1-2.475,4.857c-1.058,2.837-2.044,4.9-2.483,4.861a34.6,34.6,0,0,0-.875,5.838c.733.908,1.409,3.049,2.642,5.007,1.335.57,3.147,2.048,5.317,2.569-.09-.256,2.707.346,5.41.692s5.414.688,5.414.688a1.974,1.974,0,0,1,.883,3.57l-8.9,6.294A9.179,9.179,0,0,0,118,63.161a9.367,9.367,0,0,0,.012,5.663c.586,1.84,1.657,3.888,3.509,4.747-.147.334,2.035,1.84,4.47,3.126a21.118,21.118,0,0,0,4.474,3.126,2.331,2.331,0,0,1,.782,2.08,2.418,2.418,0,0,1-1.657,1.49c-.3.049-3.827.554-5.4.716-3.265.48-5.891.863-5.41.721a9.652,9.652,0,0,0-5.3,2.593,16.936,16.936,0,0,0-2.618,5.023c.216,1.038.061,3.648.9,5.834.114-.334,1.25,2.422,2.5,4.844s2.5,4.844,2.5,4.844a1.97,1.97,0,0,1-2.43,2.756L104.1,106.972a9.279,9.279,0,0,0-12.469,8.651c.232-.818.183,0,0,1.693a17.769,17.769,0,0,1-.033,3.757c.069.855,0,2.679-.024,3.749.008.969-.008,1.706-.008,1.706-.012,2.683-1.429,2.353-2.927,1.238a25.6,25.6,0,0,1-3.489-3.468,19.607,19.607,0,0,0-1.917-2.117,11.081,11.081,0,0,0-2.113-2.011,8.835,8.835,0,0,0-2.288-1.742,6.434,6.434,0,0,0-2.434-1.189,6.36,6.36,0,0,0-2.536-.594,7.341,7.341,0,0,0-2.642.358,8.68,8.68,0,0,0-4.433,3.232c-2.308,2.988-3.652,7.258-5.887,10.479-.562.81-1.384,1.649-2.361,1.523-1.136-.138-1.685-1.437-1.962-2.548-.4-1.612-.7-3.253-1.046-4.877s-1.172-3.468-1.384-4.771c-1-1.677-2.764-3.342-2.695-4.222-2.129-1.238-4.071-1.991-4.189-2.434a11.016,11.016,0,0,0-5.626.794A42.324,42.324,0,0,0,36.4,117.5a35.648,35.648,0,0,1-5.329,3.391c.073-.126-.851.3-1.738.346a4.34,4.34,0,0,1-1.3-2.259" transform="translate(0 0)" fill="#114653"/>
      </g>
    </g>
    <text id="_03" data-name="03" transform="translate(152 7225)" fill="#d7eced" font-size="55" font-family="SegoeUI, Segoe UI"><tspan x="-29.648" y="59">03</tspan></text>
  </g>
</svg>
