<svg xmlns="http://www.w3.org/2000/svg" xmlns:xlink="http://www.w3.org/1999/xlink" width="127.186" height="132.251" viewBox="0 0 127.186 132.251">
  <defs>
    <clipPath id="clip-path">
      <rect id="Rectángulo_183" data-name="Rectángulo 183" width="127.186" height="132.251" fill="#114653"/>
    </clipPath>
  </defs>
  <g id="Grupo_375" data-name="Grupo 375" transform="translate(-131 -6865.874)">
    <g id="Grupo_365" data-name="Grupo 365" transform="translate(131 6865.874)">
      <g id="Grupo_364" data-name="Grupo 364" transform="translate(0 0)" clip-path="url(#clip-path)">
        <path id="Trazado_105" data-name="Trazado 105" d="M24.066,116.574a12.482,12.482,0,0,1-.013-1.707c-.856-1.166-.8-5.139-1.288-6.672a24.954,24.954,0,0,0-3.3-6.681,24.926,24.926,0,0,0-12-9.305c-2.349-.834-5.17-1.607-6.048-3.943-.921-2.45.9-4.978,2.275-7.209A25.012,25.012,0,0,0,2.643,53.874C1.4,52.171-.143,50.389.01,48.285c.245-3.31,4.209-4.685,7.27-5.978A23.633,23.633,0,0,0,19.315,30.478a23.092,23.092,0,0,0,2.109-8.441c.148-2.677-.616-6.144,1.637-8.183,1.528-1.38,3.864-1.327,5.869-.86,2.825.664,5.563,1,8.4,1.52,2.485-.559,5.008-.847,7.545-1.38A48.1,48.1,0,0,0,51.6,9.453,25.627,25.627,0,0,0,56.933,3.68l.934-1.428A5.38,5.38,0,0,1,61.907.008c1.843-.079,3.926.467,4.153,2.026.729-.258,1.725,1,1.009,1.375A31,31,0,0,1,72.7,8.889c2.24.655,4.441,2.227,6.912,3.319,2.3.314,5.017,1.057,7.6.974a23.96,23.96,0,0,0,7.707-1.537l1.6-.6a4.993,4.993,0,0,1,6.755,4.637l.009,1.707a24.048,24.048,0,0,0,17.693,23.034l1.646.45c8.222,2.253-.144,11.55-1.38,15.724a24.832,24.832,0,0,0,2.764,20.466,25.638,25.638,0,0,1,2.747,4.467c1.1,2.79.074,5.7-2.869,6.677,0,0-1.616.563-1.62.537a32,32,0,0,0-6.952,3.659,45.337,45.337,0,0,0-5.292,5.55c-3.166,3.917-4.436,10.078-4.2,14.956.1,2.214.031,4.227-1.86,5.677a6.694,6.694,0,0,1-6.179.284,52.517,52.517,0,0,0-7.777-1.127c-2.594.384-5.057.908-7.541,1.38-2.17,1.179-4.489,2.266-6.725,3.681a37.745,37.745,0,0,0-5.332,5.773A17.045,17.045,0,0,1,69.47,130a4.832,4.832,0,0,1-1.795,1.651,5.007,5.007,0,0,1-6.393-1.432s-1.048-1.384-1.013-1.375a40.922,40.922,0,0,0-5.629-5.48c-2.428-1.345-4.9-2.253-6.912-3.319-2.563-.288-4.96-.629-7.607-.974-2.2.5-4.96.747-7.707,1.537.293.135-1.371.681-1.594.6a4.861,4.861,0,0,1-4.589-.555,5.045,5.045,0,0,1-1.559-1.72,4.884,4.884,0,0,1-.607-2.362" transform="translate(-0.001 0.002)" fill="#114653"/>
      </g>
    </g>
    <text id="_02" data-name="02" transform="translate(131 6899)" fill="#d7eced" font-size="55" font-family="SegoeUI, Segoe UI"><tspan x="-29.648" y="59">02</tspan></text>
  </g>
</svg>
