<svg id="Grupo_369" data-name="Grupo 369" xmlns="http://www.w3.org/2000/svg" xmlns:xlink="http://www.w3.org/1999/xlink" width="88.934" height="88.338" viewBox="0 0 88.934 88.338">
  <defs>
    <clipPath id="clip-path">
      <rect id="Rectángulo_185" data-name="Rectángulo 185" width="88.934" height="88.338" fill="none"/>
    </clipPath>
  </defs>
  <g id="Grupo_368" data-name="Grupo 368" transform="translate(0 0)" clip-path="url(#clip-path)">
    <path id="Trazado_107" data-name="Trazado 107" d="M36.693,21.564c.267.267.458.712.2.992a.779.779,0,0,1-.471.191,4.325,4.325,0,0,1-2.086-.254c-.636-.254-1.323-.674-1.971-.432a1.726,1.726,0,0,0-.8,1.971,11.574,11.574,0,0,1,.5,2.238c0,.521-.369,1.17-.878,1.056-.331-.076-.509-.407-.636-.725a22.513,22.513,0,0,0-.928-2.544,1.643,1.643,0,0,0-.9-.852c-1.246-.318-2.442,1.831-3.154,2.569a1.824,1.824,0,0,1-.6.483.7.7,0,0,1-.738-.076c-.305-.305-.114-.827.1-1.208.471-.839,2.124-2.849,1.183-3.8a2.016,2.016,0,0,0-1.526-.458c-.547.025-1.094.153-1.641.14a1.709,1.709,0,0,1-1.424-.687.808.808,0,0,1-.114-.636c.153-.5.814-.572,1.335-.61a7.546,7.546,0,0,0,2.925-.8,1.015,1.015,0,0,0,.369-.28c.267-.382-.089-.89-.394-1.246a11.349,11.349,0,0,1-1.628-2.416,1.591,1.591,0,0,1-.216-.738.591.591,0,0,1,.445-.572.775.775,0,0,1,.471.127,9.165,9.165,0,0,1,2.327,1.73,3.564,3.564,0,0,0,.776.674.905.905,0,0,0,.992-.025,1.237,1.237,0,0,0,.343-.585c.331-.916.572-1.857.827-2.785a2.043,2.043,0,0,1,.394-.839.672.672,0,0,1,.839-.153.946.946,0,0,1,.267.394A5.073,5.073,0,0,1,31,13.412c-.038.827,0,2.048.865,2.467,1.068.521,2.315-.7,3.294-1.017a1.8,1.8,0,0,1,.814-.1.714.714,0,0,1,.6.5c.089.407-.28.75-.61.992l-2.175,1.6a1.451,1.451,0,0,0-.725.967,1.3,1.3,0,0,0,.75,1.056,20.158,20.158,0,0,1,2.722,1.513c.051.064.114.114.165.178" transform="translate(5.649 2.967)" fill="#114653"/>
    <path id="Trazado_108" data-name="Trazado 108" d="M88.9,23.464c.013-.763.013-1.552,0-2.34a42.032,42.032,0,0,0-.254-4.21V6.638a3.613,3.613,0,0,1,0-1.615c.076-.445-.1-.789,0-1.017-.025-.229-.191-.356,0-.356a1.145,1.145,0,0,0-.1-.954c-.064-.305-.369-.6-.394-.865a1.05,1.05,0,0,0-.572-.725C87.466.889,87.034.7,86.868.533a2.235,2.235,0,0,0-.8-.356C81.31.088,76.223.088,71.352.075c-.89,0-1.768,0-2.671-.025C52.987.088,38.5.088,23.024.062,22.108.05,21.192.05,20.289.05,12.633,1.36-.085-3.728.182,7.541c-.051.8-.089,1.577-.114,2.34A72.733,72.733,0,0,0,.36,19.05V29.3c0,.916,0,1.844.013,2.785C.22,33.295.118,34.668.067,36.08c-.025.7-.038,1.424-.038,2.137-.089,3.2.776,7.275.483,10.836a13.393,13.393,0,0,1-.331,2.06c-.267,8.75-.267,16.381.178,25.78-.038.483.051.941.025,1.386A6.124,6.124,0,0,1,.36,79.563c.038.407-.013.789-.013,1.157.051.356-.051.7.013,1.017a7.027,7.027,0,0,1,.013.89c-.038.267.127.521-.013.738.051.445-.114.789,0,1.017s-.051.343,0,.343a4.022,4.022,0,0,0,.1.967,2.473,2.473,0,0,0,.394.852,3.526,3.526,0,0,0,1.3,1.3,3.511,3.511,0,0,0,1.819.5h6.435c9.856-.5,21.3-.5,31.744,0h7.02a16.5,16.5,0,0,1,5.049-.28c.547.064,1.132.153,1.793.28a38.773,38.773,0,0,1,10.721,0H85.05a3.169,3.169,0,0,0,1.819-.5c.293-.318.7-.763,1.285-1.3a4.936,4.936,0,0,0,.5-1.819.41.41,0,0,0,0-.343c-.025-.229.051-.572,0-1.017a8.635,8.635,0,0,0,0-1.628,17.657,17.657,0,0,1,0-2.175c.051-1.234.089-2.455.114-3.676s.051-2.416.051-3.663c.127-6,.127-11.09.076-17.729.038-.8.038-1.666.038-2.556.013-9.666,0-19.192-.025-28.476M36.556,34.8a15.788,15.788,0,0,0-9.526,6.779c-2.633,4.1-2.353,8.47-2.505,13.074.127.674.127,1.552.229,2.315a66.365,66.365,0,0,0,1.335,6.88q.973,3.987,2.327,7.885c.445,1.3.928,2.569,1.437,3.841.267.674,1.692,3.79.776,3.065-4.222-3.358-6.512-5.6-10.314-12.158C14.986,57.281,10,48.3,10.306,37.492a42.226,42.226,0,0,1,3.167-14.855,41.169,41.169,0,0,1,3.5-6.779c.814-1.285,2.467-4.642,3.854-5.316a12.293,12.293,0,0,1,2.06-1.157,14.431,14.431,0,0,1,3.23-.013c2.277-.025,4.553-.038,6.842-.051,4.439-.038,8.89-.064,13.329-.1.407,0,.878.025,1.094.369a1.139,1.139,0,0,1,.14.687q.1,11.484.178,22.982A.883.883,0,0,1,46.6,34.325c-2.378-.025-4.782-.165-7.135.025a18.967,18.967,0,0,0-2.912.445M76.122,65.331a43.8,43.8,0,0,1-3.5,6.779c-.827,1.285-2.48,4.629-3.854,5.316A12.32,12.32,0,0,1,66.7,78.571a14.309,14.309,0,0,1-3.218.025c-2.289.013-4.566.038-6.842.051-4.451.025-8.89.064-13.341.089A1.237,1.237,0,0,1,42.2,78.38a1.287,1.287,0,0,1-.14-.687q-.076-11.5-.165-22.982a1.121,1.121,0,0,1,.191-.814,1.161,1.161,0,0,1,.9-.254c2.366.013,4.769.165,7.135-.025a20.21,20.21,0,0,0,2.9-.445,15.917,15.917,0,0,0,9.539-6.779c2.62-4.1,2.34-8.47,2.505-13.074-.14-.687-.14-1.552-.242-2.327a60.066,60.066,0,0,0-1.335-6.868c-.649-2.671-1.412-5.3-2.315-7.885q-.687-1.946-1.45-3.854c-.267-.661-1.692-3.777-.776-3.052,4.235,3.358,6.512,5.583,10.327,12.158,5.329,9.182,10.314,18.174,10.009,28.984a42.859,42.859,0,0,1-3.167,14.855M63.492,66.2a1.98,1.98,0,0,0-.89-.28c-.954-.127-1.92-.242-2.862-.445A1.242,1.242,0,0,1,59.1,65.2a.913.913,0,0,1-.165-.967,3.3,3.3,0,0,1,.572-.865A9.616,9.616,0,0,0,60.9,60.842a.914.914,0,0,0,.064-.483.589.589,0,0,0-.623-.369,1.52,1.52,0,0,0-.7.318,11.228,11.228,0,0,0-2.175,1.933c-.305.356-.763.776-1.183.56a.848.848,0,0,1-.318-.318A7.557,7.557,0,0,1,54.755,59.7c-.1-.521-.267-1.17-.789-1.246a.751.751,0,0,0-.61.2,1.719,1.719,0,0,0-.483,1.5c.064.547.267,1.068.369,1.6a2.033,2.033,0,0,1-.254,1.59c-.8,1.056-3.027-.318-3.93-.661-.407-.165-.954-.28-1.208.076a.655.655,0,0,0,.025.725,2.031,2.031,0,0,0,.56.534c.839.6,3.116,1.488,2.976,2.773a1.544,1.544,0,0,1-.712,1,21.7,21.7,0,0,1-2.4,1.272c-.293.165-.6.394-.623.725-.038.521.636.8,1.157.738a12.3,12.3,0,0,0,2.162-.8,1.7,1.7,0,0,1,2.06.521c.331.6,0,1.335-.153,2.009a4.34,4.34,0,0,0,.025,2.1.825.825,0,0,0,.254.445c.305.216.725-.051.954-.343a1.819,1.819,0,0,0,.14-.191,18.059,18.059,0,0,0,1.132-2.9c.191-.42.5-.852.954-.89a1.464,1.464,0,0,1,1.056.6L59.3,73c.293.305.674.623,1.068.483a.72.72,0,0,0,.407-.661,1.7,1.7,0,0,0-.216-.789c-.445-.928-1.831-2-1.463-3.129.305-.928,1.513-1.132,2.34-1.2a4.918,4.918,0,0,0,1.971-.394A.7.7,0,0,0,63.747,67a.645.645,0,0,0-.254-.8" transform="translate(0 0)" fill="#114653"/>
    <path id="Trazado_109" data-name="Trazado 109" d="M45.319,8.3a1.139,1.139,0,0,0-.14-.687c-.216-.343-.687-.369-1.094-.369-4.439.038-8.89.064-13.329.1-2.289.013-4.566.025-6.842.051a14.431,14.431,0,0,0-3.23.013,12.293,12.293,0,0,0-2.06,1.157c-1.386.674-3.04,4.032-3.854,5.316a41.169,41.169,0,0,0-3.5,6.779A42.226,42.226,0,0,0,8.106,35.521c-.305,10.81,4.68,19.789,10.009,28.984,3.8,6.563,6.092,8.8,10.314,12.158.916.725-.509-2.391-.776-3.065-.509-1.272-.992-2.544-1.437-3.841q-1.354-3.892-2.327-7.885a66.365,66.365,0,0,1-1.335-6.88c-.1-.763-.1-1.641-.229-2.315.153-4.6-.127-8.979,2.505-13.074a15.788,15.788,0,0,1,9.526-6.779,18.967,18.967,0,0,1,2.912-.445c2.353-.191,4.757-.051,7.135-.025A.883.883,0,0,0,45.5,31.286Q45.4,19.8,45.319,8.3M40.346,23.554a.779.779,0,0,1-.471.191,4.325,4.325,0,0,1-2.086-.254c-.636-.254-1.323-.674-1.971-.432a1.726,1.726,0,0,0-.8,1.971,11.574,11.574,0,0,1,.5,2.238c0,.521-.369,1.17-.878,1.056-.331-.076-.509-.407-.636-.725a22.513,22.513,0,0,0-.928-2.544,1.643,1.643,0,0,0-.9-.852c-1.246-.318-2.442,1.831-3.154,2.569a1.824,1.824,0,0,1-.6.483.7.7,0,0,1-.738-.076c-.305-.305-.114-.827.1-1.208.471-.839,2.124-2.849,1.183-3.8a2.016,2.016,0,0,0-1.526-.458c-.547.025-1.094.153-1.641.14a1.709,1.709,0,0,1-1.424-.687.808.808,0,0,1-.114-.636c.153-.5.814-.572,1.335-.61a7.546,7.546,0,0,0,2.925-.8,1.015,1.015,0,0,0,.369-.28c.267-.382-.089-.89-.394-1.246a11.349,11.349,0,0,1-1.628-2.416,1.591,1.591,0,0,1-.216-.738.591.591,0,0,1,.445-.572.775.775,0,0,1,.471.127,9.165,9.165,0,0,1,2.327,1.73,3.564,3.564,0,0,0,.776.674.905.905,0,0,0,.992-.025A1.237,1.237,0,0,0,32,15.783c.331-.916.572-1.857.827-2.785a2.043,2.043,0,0,1,.394-.839.672.672,0,0,1,.839-.153.946.946,0,0,1,.267.394,5.073,5.073,0,0,1,.114,2.009c-.038.827,0,2.048.865,2.467,1.068.521,2.315-.7,3.294-1.017a1.8,1.8,0,0,1,.814-.1.714.714,0,0,1,.6.5c.089.407-.28.75-.61.992l-2.175,1.6a1.451,1.451,0,0,0-.725.967,1.3,1.3,0,0,0,.75,1.056,20.158,20.158,0,0,1,2.722,1.513c.051.064.114.114.165.178.267.267.458.712.2.992" transform="translate(2.2 1.97)" fill="#d7eced"/>
    <path id="Trazado_110" data-name="Trazado 110" d="M60.326,19.521C56.51,12.945,54.234,10.72,50,7.362c-.916-.725.509,2.391.776,3.052q.763,1.908,1.45,3.854c.9,2.582,1.666,5.214,2.315,7.885a60.065,60.065,0,0,1,1.335,6.868c.1.776.1,1.641.242,2.327-.165,4.6.114,8.979-2.505,13.074A15.917,15.917,0,0,1,44.072,51.2a20.21,20.21,0,0,1-2.9.445c-2.366.191-4.769.038-7.135.025a1.161,1.161,0,0,0-.9.254,1.121,1.121,0,0,0-.191.814q.076,11.484.165,22.982a1.287,1.287,0,0,0,.14.687,1.237,1.237,0,0,0,1.094.356c4.451-.025,8.89-.064,13.341-.089,2.277-.013,4.553-.038,6.842-.051a14.309,14.309,0,0,0,3.218-.025,12.32,12.32,0,0,0,2.073-1.145c1.374-.687,3.027-4.032,3.854-5.316a43.8,43.8,0,0,0,3.5-6.779,42.859,42.859,0,0,0,3.167-14.855c.305-10.81-4.68-19.8-10.009-28.984M54.793,65.026a.7.7,0,0,1-.343.318,4.918,4.918,0,0,1-1.971.394c-.827.064-2.035.267-2.34,1.2-.369,1.132,1.017,2.2,1.463,3.129a1.7,1.7,0,0,1,.216.789.72.72,0,0,1-.407.661c-.394.14-.776-.178-1.068-.483l-1.882-1.92a1.464,1.464,0,0,0-1.056-.6c-.458.038-.763.471-.954.89a18.059,18.059,0,0,1-1.132,2.9,1.819,1.819,0,0,1-.14.191c-.229.293-.649.56-.954.343a.825.825,0,0,1-.254-.445,4.34,4.34,0,0,1-.025-2.1c.153-.674.483-1.412.153-2.009a1.7,1.7,0,0,0-2.06-.521,12.3,12.3,0,0,1-2.162.8c-.521.064-1.2-.216-1.157-.738.025-.331.331-.56.623-.725a21.7,21.7,0,0,0,2.4-1.272,1.544,1.544,0,0,0,.712-1c.14-1.285-2.137-2.175-2.976-2.773a2.031,2.031,0,0,1-.56-.534.655.655,0,0,1-.025-.725c.254-.356.8-.242,1.208-.076.9.343,3.129,1.717,3.93.661a2.033,2.033,0,0,0,.254-1.59c-.1-.534-.305-1.056-.369-1.6a1.719,1.719,0,0,1,.483-1.5.751.751,0,0,1,.61-.2c.521.076.687.725.789,1.246a7.557,7.557,0,0,0,1.208,2.785.848.848,0,0,0,.318.318c.42.216.878-.2,1.183-.56a11.228,11.228,0,0,1,2.175-1.933,1.52,1.52,0,0,1,.7-.318.589.589,0,0,1,.623.369.914.914,0,0,1-.064.483A9.616,9.616,0,0,1,50.558,61.4a3.3,3.3,0,0,0-.572.865.913.913,0,0,0,.165.967,1.242,1.242,0,0,0,.636.267c.941.2,1.908.318,2.862.445a1.98,1.98,0,0,1,.89.28.645.645,0,0,1,.254.8" transform="translate(8.953 1.971)" fill="#d7eced"/>
  </g>
</svg>
