<svg xmlns="http://www.w3.org/2000/svg" xmlns:xlink="http://www.w3.org/1999/xlink" width="1651" height="100.714" viewBox="0 0 1651 100.714">
  <defs>
    <clipPath id="clip-path">
      <path id="Trazado_54" data-name="Trazado 54" d="M0,981H100.713V-670H0Z" transform="translate(0 670)" fill="none"/>
    </clipPath>
  </defs>
  <g id="Grupo_226" data-name="Grupo 226" transform="translate(981) rotate(90)">
    <g id="Grupo_202" data-name="Grupo 202" transform="translate(0 -670)" clip-path="url(#clip-path)">
      <g id="Grupo_201" data-name="Grupo 201" transform="translate(3.298 134.272)">
        <path id="Trazado_53" data-name="Trazado 53" d="M0,27.961A47.06,47.06,0,1,1,47.063,75.02,47.113,47.113,0,0,1,0,27.961m83.5,0a36.445,36.445,0,1,0-36.44,36.445A36.485,36.485,0,0,0,83.5,27.961" transform="translate(0 19.097)" fill="#e84253"/>
      </g>
    </g>
    <g id="Grupo_203" data-name="Grupo 203" transform="translate(0 -669.999)">
      <path id="Trazado_55" data-name="Trazado 55" d="M55.384,0,12.529,42.855-30.323,0l-7.5,7.5L5.026,50.358l-.209.209,7.506,7.5.207-.207.207.207,7.506-7.5-.209-.209L62.887,7.5Z" transform="translate(37.826)" fill="#e84253"/>
    </g>
    <g id="Grupo_204" data-name="Grupo 204" transform="translate(0.003 -615.03)">
      <path id="Trazado_56" data-name="Trazado 56" d="M29.919,25.464l-42.85-42.855-7.5,7.506L22.413,32.969l-.2.2,7.5,7.506.207-.209.209.209,7.5-7.506-.207-.2L80.275-9.885l-7.5-7.506Z" transform="translate(20.434 17.391)" fill="#e84253"/>
    </g>
    <g id="Grupo_206" data-name="Grupo 206" transform="translate(0 -670)" clip-path="url(#clip-path)">
      <g id="Grupo_205" data-name="Grupo 205" transform="translate(3.298 1159.769)">
        <path id="Trazado_57" data-name="Trazado 57" d="M0,27.961A47.06,47.06,0,1,1,47.063,75.02,47.113,47.113,0,0,1,0,27.961m83.5,0a36.445,36.445,0,1,0-36.44,36.445A36.483,36.483,0,0,0,83.5,27.961" transform="translate(0 19.097)" fill="#e84253"/>
      </g>
    </g>
    <g id="Grupo_207" data-name="Grupo 207" transform="translate(0.001 662.688)">
      <path id="Trazado_59" data-name="Trazado 59" d="M29.919.124,29.71-.085l-7.5,7.5.209.212-42.85,42.857,7.5,7.506,42.85-42.859L72.776,57.993l7.5-7.506L37.425,7.63l.207-.212-7.5-7.5Z" transform="translate(20.434 0.085)" fill="#e84253"/>
    </g>
    <g id="Grupo_208" data-name="Grupo 208" transform="translate(0.003 607.716)">
      <path id="Trazado_60" data-name="Trazado 60" d="M29.919.124l-.207-.209-7.5,7.506.207.209L-20.434,50.49l7.5,7.506L29.919,15.134,72.771,58l7.5-7.506L37.425,7.63l.207-.209L30.126-.085Z" transform="translate(20.434 0.085)" fill="#e84253"/>
    </g>
    <g id="Grupo_209" data-name="Grupo 209" transform="translate(0.001 349.9)">
      <path id="Trazado_61" data-name="Trazado 61" d="M29.919,25.464l-42.85-42.855-7.5,7.5,42.85,42.857-.207.207,7.5,7.506.207-.209.209.209,7.5-7.506-.207-.207L80.277-9.888l-7.5-7.5Z" transform="translate(20.434 17.391)" fill="#e84253"/>
    </g>
    <g id="Grupo_210" data-name="Grupo 210" transform="translate(0.003 404.869)">
      <path id="Trazado_62" data-name="Trazado 62" d="M29.919,25.464-12.933-17.391l-7.5,7.506L22.413,32.969l-.2.2,7.5,7.506.207-.207.209.207,7.5-7.506-.2-.2L80.275-9.885l-7.5-7.506Z" transform="translate(20.434 17.391)" fill="#e84253"/>
    </g>
    <g id="Grupo_211" data-name="Grupo 211" transform="translate(0.001 867.96)">
      <path id="Trazado_63" data-name="Trazado 63" d="M29.919,25.464l-42.85-42.855-7.5,7.5,42.85,42.857-.207.207,7.5,7.506.207-.209.209.209,7.5-7.506-.207-.207L80.277-9.888l-7.5-7.5Z" transform="translate(20.434 17.391)" fill="#e84253"/>
    </g>
    <g id="Grupo_212" data-name="Grupo 212" transform="translate(0.003 922.929)">
      <path id="Trazado_64" data-name="Trazado 64" d="M29.919,25.464-12.933-17.391l-7.5,7.506L22.413,32.969l-.2.2,7.5,7.506.207-.209.209.209,7.5-7.506-.2-.2L80.275-9.885l-7.5-7.506Z" transform="translate(20.434 17.391)" fill="#e84253"/>
    </g>
    <g id="Grupo_215" data-name="Grupo 215" transform="translate(0 -670)" clip-path="url(#clip-path)">
      <g id="Grupo_213" data-name="Grupo 213" transform="translate(3.298 1419.621)">
        <path id="Trazado_65" data-name="Trazado 65" d="M0,27.961A47.06,47.06,0,1,1,47.063,75.02,47.113,47.113,0,0,1,0,27.961m83.5,0a36.445,36.445,0,1,0-36.44,36.445A36.485,36.485,0,0,0,83.5,27.961" transform="translate(0 19.097)" fill="#e84253"/>
      </g>
      <g id="Grupo_214" data-name="Grupo 214" transform="translate(3.298 389.94)">
        <path id="Trazado_66" data-name="Trazado 66" d="M0,27.961A47.06,47.06,0,1,1,47.063,75.02,47.113,47.113,0,0,1,0,27.961m83.5,0a36.445,36.445,0,1,0-36.44,36.445A36.483,36.483,0,0,0,83.5,27.961" transform="translate(0 19.097)" fill="#e84253"/>
      </g>
    </g>
    <g id="Grupo_216" data-name="Grupo 216" transform="translate(0.001 -105.052)">
      <path id="Trazado_68" data-name="Trazado 68" d="M29.919.124,29.71-.085l-7.5,7.506.209.209L-20.434,50.49l7.5,7.506,42.85-42.859L72.776,58l7.5-7.506L37.425,7.63l.207-.209-7.5-7.506Z" transform="translate(20.434 0.085)" fill="#e84253"/>
    </g>
    <g id="Grupo_217" data-name="Grupo 217" transform="translate(0.003 -160.021)">
      <path id="Trazado_69" data-name="Trazado 69" d="M29.919.123l-.207-.207-7.5,7.506.207.207-42.85,42.859,7.5,7.506L29.919,15.135,72.771,57.994l7.5-7.506L37.425,7.629l.207-.207L30.126-.084Z" transform="translate(20.434 0.084)" fill="#e84253"/>
    </g>
    <g id="Grupo_218" data-name="Grupo 218" transform="translate(0.001 -418.486)">
      <path id="Trazado_70" data-name="Trazado 70" d="M29.919,25.464l-42.85-42.855-7.5,7.506,42.85,42.855-.207.207,7.5,7.506.207-.209.209.209,7.5-7.506-.207-.2L80.277-9.885l-7.5-7.506Z" transform="translate(20.434 17.391)" fill="#e84253"/>
    </g>
    <g id="Grupo_219" data-name="Grupo 219" transform="translate(0.003 -363.516)">
      <path id="Trazado_71" data-name="Trazado 71" d="M29.919,25.464-12.933-17.391l-7.5,7.506L22.413,32.969l-.2.2,7.5,7.506.207-.207.209.207,7.5-7.506-.2-.2L80.275-9.885l-7.5-7.506Z" transform="translate(20.434 17.391)" fill="#e84253"/>
    </g>
    <g id="Grupo_221" data-name="Grupo 221" transform="translate(0 -670)" clip-path="url(#clip-path)">
      <g id="Grupo_220" data-name="Grupo 220" transform="translate(3.298 901.333)">
        <path id="Trazado_72" data-name="Trazado 72" d="M0,27.961A47.06,47.06,0,1,1,47.063,75.02,47.113,47.113,0,0,1,0,27.961m83.5,0a36.445,36.445,0,1,0-36.44,36.445A36.483,36.483,0,0,0,83.5,27.961" transform="translate(0 19.097)" fill="#e84253"/>
      </g>
    </g>
    <g id="Grupo_222" data-name="Grupo 222" transform="translate(0.001 88.146)">
      <path id="Trazado_74" data-name="Trazado 74" d="M29.919,25.465l-42.85-42.857-7.5,7.506,42.85,42.857-.207.207,7.5,7.5.207-.207.209.207,7.5-7.5-.207-.207L80.277-9.886l-7.5-7.506Z" transform="translate(20.434 17.392)" fill="#e84253"/>
    </g>
    <g id="Grupo_223" data-name="Grupo 223" transform="translate(0.003 143.118)">
      <path id="Trazado_75" data-name="Trazado 75" d="M29.919,25.462-12.933-17.39l-7.5,7.506L22.413,32.968l-.2.207,7.5,7.506.207-.209.209.209,7.5-7.506-.2-.207L80.275-9.884l-7.5-7.506Z" transform="translate(20.434 17.39)" fill="#e84253"/>
    </g>
    <g id="Grupo_225" data-name="Grupo 225" transform="translate(0 -670)" clip-path="url(#clip-path)">
      <g id="Grupo_224" data-name="Grupo 224" transform="translate(3.298 641.81)">
        <path id="Trazado_76" data-name="Trazado 76" d="M0,27.961A47.06,47.06,0,1,1,47.063,75.02,47.113,47.113,0,0,1,0,27.961m83.5,0a36.445,36.445,0,1,0-36.44,36.445A36.485,36.485,0,0,0,83.5,27.961" transform="translate(0 19.097)" fill="#e84253"/>
      </g>
    </g>
  </g>
</svg>
