<svg xmlns="http://www.w3.org/2000/svg" xmlns:xlink="http://www.w3.org/1999/xlink" width="351.939" height="351.939" viewBox="0 0 351.939 351.939">
  <defs>
    <clipPath id="clip-path">
      <path id="Trazado_84" data-name="Trazado 84" d="M0,176.627H351.939V-175.312H0Z" transform="translate(0 175.312)" fill="none"/>
    </clipPath>
  </defs>
  <g id="Grupo_235" data-name="Grupo 235" transform="translate(0 175.312)">
    <g id="Grupo_231" data-name="Grupo 231" transform="translate(125.066 -105.446)">
      <path id="Trazado_81" data-name="Trazado 81" d="M32.669,0H1.256L-32.426,190.741H-7.573L17.282,35.332h.377L44.779,190.741h24.6Z" transform="translate(32.426)"/>
    </g>
    <g id="Grupo_232" data-name="Grupo 232" transform="translate(135.133 16.873)">
      <path id="Trazado_82" data-name="Trazado 82" d="M21.167,27.368l-42.176-43.2L-9.4-27.164,20.534,3.5l26.9-30.637L59.624-16.434Z" transform="translate(21.009 27.164)" fill="#f2494c"/>
    </g>
    <g id="Grupo_234" data-name="Grupo 234" transform="translate(0 -175.312)" clip-path="url(#clip-path)">
      <g id="Grupo_233" data-name="Grupo 233">
        <path id="Trazado_83" data-name="Trazado 83" d="M88.314,176.627a174.87,174.87,0,0,1-68.5-13.832,175.378,175.378,0,0,1-55.931-37.709A175.378,175.378,0,0,1-73.824,69.156,174.87,174.87,0,0,1-87.656.658a174.87,174.87,0,0,1,13.832-68.5,175.378,175.378,0,0,1,37.709-55.931A175.378,175.378,0,0,1,19.816-161.48a174.869,174.869,0,0,1,68.5-13.832,174.869,174.869,0,0,1,68.5,13.832,175.378,175.378,0,0,1,55.931,37.709A175.379,175.379,0,0,1,250.452-67.84,174.87,174.87,0,0,1,264.283.658a174.87,174.87,0,0,1-13.832,68.5,175.378,175.378,0,0,1-37.709,55.931A175.378,175.378,0,0,1,156.812,162.8a174.87,174.87,0,0,1-68.5,13.832m0-335.524C.335-158.9-71.241-87.321-71.241.658S.335,160.212,88.314,160.212,247.868,88.637,247.868.658,176.293-158.9,88.314-158.9" transform="translate(87.656 175.312)" fill="#f2494c"/>
      </g>
    </g>
  </g>
</svg>
