<svg xmlns="http://www.w3.org/2000/svg" width="1651" height="114.338" viewBox="0 0 1651 114.338">
  <g id="Grupo_200" data-name="Grupo 200" transform="translate(670 114.338) rotate(-90)">
    <g id="Grupo_180" data-name="Grupo 180" transform="translate(8.622 -615.845)">
      <path id="Trazado_33" data-name="Trazado 33" d="M54.557,33.872l7.393-7.393L12.343-23.134l-49.6,49.614,7.393,7.393L12.343-8.346Z" transform="translate(37.261 23.134)" fill="#8b851b"/>
    </g>
    <g id="Grupo_181" data-name="Grupo 181" transform="translate(6.506 -670)">
      <path id="Trazado_34" data-name="Trazado 34" d="M29.472,0l-49.6,49.616,7.39,7.393L29.472,14.785,71.686,57.009l7.393-7.393Z" transform="translate(20.129)" fill="#8b851b"/>
    </g>
    <g id="Grupo_182" data-name="Grupo 182" transform="translate(6.504 -413.361)">
      <path id="Trazado_35" data-name="Trazado 35" d="M4.393,0-3,7.393,46.606,57.006l49.6-49.614L88.815,0,46.606,42.219Z" transform="translate(3)" fill="#8b851b"/>
    </g>
    <g id="Grupo_183" data-name="Grupo 183" transform="translate(8.622 -359.209)">
      <path id="Trazado_36" data-name="Trazado 36" d="M4.393,0-3,7.393,46.606,57.009l49.6-49.616L88.818,0,46.606,42.224Z" transform="translate(3)" fill="#8b851b"/>
    </g>
    <g id="Grupo_184" data-name="Grupo 184" transform="translate(0 -543.27)">
      <path id="Trazado_37" data-name="Trazado 37" d="M0,33.969,57.169,91.138l57.169-57.169L57.169-23.2Zm14.783,0L57.169-8.415,99.55,33.969,57.169,76.353Z" transform="translate(0 23.2)" fill="#8b851b"/>
    </g>
    <g id="Grupo_185" data-name="Grupo 185" transform="translate(8.622 -102.565)">
      <path id="Trazado_38" data-name="Trazado 38" d="M54.557,33.872l7.393-7.393L12.343-23.134l-49.6,49.614,7.393,7.393L12.343-8.349Z" transform="translate(37.261 23.134)" fill="#8b851b"/>
    </g>
    <g id="Grupo_186" data-name="Grupo 186" transform="translate(6.506 -156.72)">
      <path id="Trazado_39" data-name="Trazado 39" d="M54.555,33.874l7.393-7.393L12.341-23.135l-49.6,49.616,7.393,7.393L12.341-8.35Z" transform="translate(37.26 23.135)" fill="#8b851b"/>
    </g>
    <g id="Grupo_187" data-name="Grupo 187" transform="translate(0 -286.63)">
      <path id="Trazado_40" data-name="Trazado 40" d="M0,33.969,57.169,91.138l57.169-57.169L57.169-23.2Zm14.783,0L57.169-8.415,99.55,33.969,57.169,76.355Z" transform="translate(0 23.2)" fill="#8b851b"/>
    </g>
    <g id="Grupo_188" data-name="Grupo 188" transform="translate(6.504 99.918)">
      <path id="Trazado_41" data-name="Trazado 41" d="M4.393,0-3,7.393,46.606,57.006l49.6-49.614L88.815,0,46.606,42.221Z" transform="translate(3)" fill="#8b851b"/>
    </g>
    <g id="Grupo_189" data-name="Grupo 189" transform="translate(8.622 154.071)">
      <path id="Trazado_42" data-name="Trazado 42" d="M4.393,0-3,7.393,46.606,57.009l49.6-49.616L88.818,0,46.606,42.224Z" transform="translate(3)" fill="#8b851b"/>
    </g>
    <g id="Grupo_190" data-name="Grupo 190" transform="translate(0 -29.989)">
      <path id="Trazado_43" data-name="Trazado 43" d="M0,33.969,57.169,91.138l57.169-57.169L57.169-23.2Zm14.783,0L57.169-8.417,99.55,33.969,57.169,76.353Z" transform="translate(0 23.2)" fill="#8b851b"/>
    </g>
    <g id="Grupo_191" data-name="Grupo 191" transform="translate(8.622 410.714)">
      <path id="Trazado_44" data-name="Trazado 44" d="M54.557,33.872l7.393-7.393L12.343-23.134l-49.6,49.614,7.393,7.393L12.343-8.346Z" transform="translate(37.261 23.134)" fill="#8b851b"/>
    </g>
    <g id="Grupo_192" data-name="Grupo 192" transform="translate(6.506 356.559)">
      <path id="Trazado_45" data-name="Trazado 45" d="M54.555,33.874l7.393-7.393L12.341-23.135l-49.6,49.616,7.393,7.393L12.341-8.35Z" transform="translate(37.26 23.135)" fill="#8b851b"/>
    </g>
    <g id="Grupo_193" data-name="Grupo 193" transform="translate(0 226.651)">
      <path id="Trazado_46" data-name="Trazado 46" d="M0,33.969,57.169,91.138l57.169-57.169L57.169-23.2Zm14.783,0L57.169-8.415,99.55,33.969,57.169,76.353Z" transform="translate(0 23.2)" fill="#8b851b"/>
    </g>
    <g id="Grupo_194" data-name="Grupo 194" transform="translate(6.504 613.198)">
      <path id="Trazado_47" data-name="Trazado 47" d="M4.393,0-3,7.393,46.606,57.006l49.6-49.614L88.815,0,46.606,42.219Z" transform="translate(3)" fill="#8b851b"/>
    </g>
    <g id="Grupo_195" data-name="Grupo 195" transform="translate(8.622 667.35)">
      <path id="Trazado_48" data-name="Trazado 48" d="M4.393,0-3,7.393,46.606,57.009l49.6-49.616L88.818,0,46.606,42.224Z" transform="translate(3)" fill="#8b851b"/>
    </g>
    <g id="Grupo_196" data-name="Grupo 196" transform="translate(0 483.29)">
      <path id="Trazado_49" data-name="Trazado 49" d="M0,33.969,57.169,91.138l57.169-57.169L57.169-23.2Zm14.783,0L57.169-8.415,99.55,33.969,57.169,76.353Z" transform="translate(0 23.2)" fill="#8b851b"/>
    </g>
    <g id="Grupo_197" data-name="Grupo 197" transform="translate(8.623 923.994)">
      <path id="Trazado_50" data-name="Trazado 50" d="M0,29.48l7.393,7.393L49.6-5.349,91.818,36.872,99.21,29.48,49.6-20.134Z" transform="translate(0 20.134)" fill="#8b851b"/>
    </g>
    <g id="Grupo_198" data-name="Grupo 198" transform="translate(6.506 869.839)">
      <path id="Trazado_51" data-name="Trazado 51" d="M54.555,33.874l7.393-7.393L12.341-23.135l-49.6,49.616,7.393,7.393L12.341-8.35Z" transform="translate(37.26 23.135)" fill="#8b851b"/>
    </g>
    <g id="Grupo_199" data-name="Grupo 199" transform="translate(0 739.93)">
      <path id="Trazado_52" data-name="Trazado 52" d="M0,33.969,57.169,91.138l57.169-57.169L57.169-23.2Zm14.783,0L57.169-8.415,99.55,33.969,57.169,76.355Z" transform="translate(0 23.2)" fill="#8b851b"/>
    </g>
  </g>
</svg>
